<?xml version="1.0" standalone="no"?>
<!DOCTYPE svg PUBLIC "-//W3C//DTD SVG 20010904//EN"
 "http://www.w3.org/TR/2001/REC-SVG-20010904/DTD/svg10.dtd">
<svg version="1.0" xmlns="http://www.w3.org/2000/svg"
 width="700.000000pt" height="700.000000pt" viewBox="0 0 700.000000 700.000000"
 preserveAspectRatio="xMidYMid meet">
<metadata>
Created by potrace 1.14, written by Peter Selinger 2001-2017
</metadata>
<g transform="translate(0.000000,700.000000) scale(0.100000,-0.100000)"
fill="#000000" stroke="none">
<path d="M1948 6810 c5 -13 3 -13 -11 -1 -15 12 -17 12 -12 -2 4 -8 1 -18 -4
-22 -6 -3 -9 -11 -5 -16 3 -5 10 -7 15 -4 5 3 6 -1 3 -9 -3 -9 -9 -14 -13 -11
-4 2 -8 -2 -8 -10 0 -8 5 -15 11 -15 6 0 3 -5 -6 -11 -19 -10 -13 -43 6 -33 6
3 -2 -6 -19 -21 -16 -14 -25 -24 -18 -21 7 4 11 -1 10 -14 -1 -11 -6 -20 -12
-20 -5 0 -3 -5 5 -10 11 -7 11 -10 2 -10 -7 0 -10 -5 -7 -11 13 -20 12 -61 -1
-66 -19 -7 -17 -32 4 -56 9 -11 12 -18 7 -14 -6 3 -17 2 -25 -3 -16 -10 -23
-60 -8 -60 7 0 7 -4 -1 -13 -8 -10 -7 -17 2 -26 9 -10 9 -11 -4 -6 -10 4 -20
1 -25 -6 -4 -8 -3 -10 4 -5 18 11 14 -5 -5 -28 -17 -20 -17 -20 0 -7 21 16 23
-1 2 -19 -11 -9 -12 -16 -5 -25 8 -10 6 -15 -7 -18 -16 -4 -16 -5 1 -6 20 -1
20 -1 0 -17 -17 -14 -17 -15 -1 -10 14 4 16 2 9 -12 -5 -9 -8 -28 -6 -42 3
-17 1 -21 -5 -11 -5 8 -14 10 -21 6 -9 -6 -6 -11 10 -20 19 -10 20 -13 6 -18
-11 -5 -15 -3 -10 5 4 6 3 8 -4 5 -11 -8 -11 -25 2 -46 10 -15 -12 -34 -28
-24 -5 3 -6 1 -2 -5 4 -6 13 -9 20 -6 17 6 14 -29 -4 -51 -19 -23 -24 -59 -8
-49 10 6 10 5 1 -7 -6 -8 -13 -42 -15 -76 -1 -34 -6 -59 -11 -56 -4 2 -5 9 -2
14 4 5 1 9 -5 9 -6 0 -8 -10 -4 -26 6 -22 4 -25 -7 -19 -11 7 -12 6 -2 -6 10
-12 10 -18 1 -27 -9 -9 -9 -12 1 -12 7 0 9 -5 6 -10 -4 -6 -12 -8 -18 -4 -7 3
-3 -2 8 -12 20 -16 20 -16 -5 -11 l-25 6 25 -21 c16 -13 19 -19 8 -15 -18 6
-19 4 -22 -32 0 -11 -4 -22 -8 -26 -4 -4 -4 -14 -1 -22 3 -8 0 -19 -8 -25 -11
-8 -11 -9 3 -5 10 4 18 -1 21 -12 2 -10 -1 -18 -9 -18 -7 0 -10 5 -7 10 3 6 1
7 -6 3 -9 -6 -9 -11 1 -24 11 -14 10 -15 -7 -9 -19 7 -19 6 -2 -7 17 -13 24
-32 8 -22 -5 3 -11 -3 -14 -13 -3 -12 0 -18 7 -17 6 2 8 1 3 -1 -4 -3 -5 -9
-2 -14 4 -5 -2 -6 -12 -2 -15 5 -16 3 -5 -8 15 -16 16 -33 1 -23 -7 4 -7 -1 1
-16 7 -12 8 -20 2 -16 -11 7 -23 -16 -28 -53 -3 -21 -2 -22 10 -6 10 14 15 15
21 5 5 -7 4 -11 -1 -8 -5 3 -17 -5 -27 -18 -14 -19 -15 -23 -2 -18 8 3 15 2
15 -4 0 -5 -8 -13 -17 -16 -10 -4 -13 -10 -8 -14 13 -9 14 -62 1 -55 -5 4 -7
-1 -3 -10 3 -9 1 -19 -5 -23 -6 -4 -8 -3 -4 4 4 6 -1 10 -13 9 -13 -1 -17 -5
-11 -12 6 -7 2 -11 -11 -12 -12 -1 -17 3 -13 9 4 7 2 8 -4 4 -7 -4 -12 -13
-12 -20 0 -7 -12 -11 -30 -10 -16 1 -27 -2 -24 -7 3 -5 10 -6 16 -3 6 4 8 2 4
-4 -3 -6 -15 -9 -26 -7 -13 3 -20 -2 -20 -12 0 -14 -2 -14 -15 3 -14 19 -14
19 -11 -2 3 -13 -1 -21 -9 -21 -8 0 -12 3 -10 7 2 4 -2 7 -9 7 -9 0 -12 -7 -8
-16 5 -14 4 -14 -13 -1 -10 8 -16 10 -13 5 4 -6 -5 -16 -19 -22 -22 -10 -24
-10 -19 5 4 9 -5 4 -19 -13 -15 -16 -24 -25 -21 -18 4 6 1 15 -5 19 -8 5 -9 3
-5 -5 5 -8 0 -14 -13 -18 -12 -3 -18 -10 -14 -17 4 -6 0 -5 -9 2 -14 12 -19 9
-33 -15 -9 -15 -14 -21 -11 -11 3 11 -1 15 -12 13 -9 -2 -21 -4 -26 -4 -4 -1
-5 -9 -2 -18 6 -14 3 -14 -15 3 -12 10 -19 13 -15 6 4 -7 1 -15 -8 -18 -9 -3
-13 -11 -9 -18 4 -7 2 -7 -7 1 -17 15 -54 -2 -46 -22 3 -9 0 -12 -9 -8 -8 3
-12 10 -8 16 4 6 1 7 -6 3 -7 -5 -10 -14 -7 -22 3 -8 0 -11 -9 -7 -8 3 -12 9
-9 14 3 5 -2 6 -11 3 -11 -5 -13 -10 -5 -19 8 -9 4 -11 -16 -7 -20 4 -25 2
-19 -8 5 -8 4 -11 -3 -6 -6 3 -14 2 -17 -4 -5 -8 -11 -8 -20 0 -11 9 -13 8
-10 -9 2 -14 -1 -18 -11 -14 -7 3 -11 10 -7 16 4 6 1 7 -6 3 -7 -5 -10 -14 -8
-20 3 -7 -1 -13 -9 -13 -7 0 -11 5 -8 11 3 6 -1 3 -9 -6 -9 -12 -17 -14 -24
-7 -8 8 -13 7 -18 -2 -6 -8 -4 -10 5 -4 9 5 11 4 6 -3 -4 -7 -20 -10 -39 -7
-31 6 -31 5 -12 -10 11 -9 15 -14 8 -11 -6 4 -15 1 -18 -4 -5 -8 -13 -6 -25 5
-17 16 -18 16 -13 -3 2 -11 0 -23 -6 -26 -7 -5 -9 0 -5 11 5 17 5 17 -10 -1
-8 -10 -20 -15 -27 -10 -8 4 -10 3 -5 -4 4 -7 2 -12 -4 -12 -6 0 -8 -4 -5 -10
3 -6 -1 -7 -10 -3 -13 4 -14 8 -4 14 8 4 10 11 6 16 -11 10 -28 -19 -22 -37 3
-9 -1 -7 -10 4 -14 19 -21 11 -16 -17 1 -5 -3 -6 -9 -2 -6 3 -8 10 -5 15 3 5
0 12 -6 16 -8 5 -9 3 -4 -6 6 -10 4 -12 -10 -6 -16 6 -16 4 -4 -10 13 -16 11
-17 -14 -12 -22 4 -25 3 -16 -9 10 -11 8 -12 -6 -7 -14 6 -16 4 -10 -6 5 -8 4
-11 -3 -6 -5 3 -13 0 -16 -6 -3 -7 -3 -3 0 10 6 23 5 23 -15 5 -23 -19 -28
-28 -9 -17 6 4 8 3 5 -3 -4 -6 -18 -8 -32 -5 -15 2 -25 0 -25 -7 0 -6 -3 -10
-7 -10 -22 4 -33 -2 -27 -13 6 -10 5 -10 -8 0 -13 10 -18 9 -29 -5 -13 -17
-13 -17 6 -3 19 14 19 14 6 -2 -7 -10 -17 -16 -21 -13 -5 3 -11 1 -15 -4 -3
-6 -13 -7 -22 -4 -9 4 -14 2 -10 -3 5 -8 -14 -14 -60 -17 -11 0 -16 -9 -15
-27 0 -3 -13 -6 -29 -7 -20 -2 -28 2 -24 10 4 7 0 4 -8 -5 -8 -10 -18 -14 -23
-10 -4 4 -3 0 3 -8 10 -13 8 -16 -15 -15 -15 0 -34 5 -42 10 -9 5 -7 -1 5 -15
20 -23 20 -23 0 -12 -15 8 -24 7 -37 -5 -15 -13 -18 -13 -18 -2 -1 10 -4 9
-11 -4 -7 -13 -6 -21 4 -32 8 -8 18 -11 23 -7 5 4 2 -2 -6 -12 -8 -11 -10 -17
-4 -13 6 4 21 -2 33 -12 16 -14 18 -21 9 -24 -8 -3 -6 -6 5 -6 10 -1 16 -5 13
-10 -4 -5 0 -12 6 -14 10 -4 9 -8 -2 -16 -16 -11 -10 -14 33 -14 14 0 15 -2 5
-15 -11 -13 -10 -15 10 -10 12 4 20 2 17 -2 -3 -5 -1 -12 5 -15 6 -4 8 -16 5
-28 -2 -12 -2 -17 1 -10 5 12 54 -30 54 -47 0 -5 8 -6 18 -3 14 6 15 4 4 -9
-9 -11 -10 -18 -2 -23 6 -3 7 -12 4 -18 -5 -8 -3 -8 7 1 19 17 32 15 25 -5 -4
-10 -4 -14 0 -10 4 4 13 -1 19 -10 11 -15 15 -16 31 -3 17 14 18 13 7 -1 -7
-9 -10 -18 -7 -22 3 -3 -3 -3 -15 0 -12 3 -21 1 -21 -5 0 -5 6 -10 13 -9 6 0
23 -1 37 -2 19 -1 22 -3 10 -10 -8 -6 -18 -7 -22 -5 -4 3 -5 -3 -1 -12 4 -11
8 -13 11 -6 2 7 8 12 14 12 6 0 8 -6 5 -14 -3 -8 1 -13 11 -12 11 1 16 -6 16
-17 -2 -15 1 -16 14 -5 13 11 14 10 4 -7 -9 -18 -7 -21 11 -22 12 -1 29 -11
38 -22 9 -11 20 -17 24 -13 5 4 4 1 0 -7 -7 -12 -11 -11 -23 7 -8 12 -22 22
-31 21 -11 0 -12 -2 -3 -6 19 -7 62 -52 62 -64 0 -6 5 -7 10 -4 6 4 8 11 5 16
-3 5 1 6 10 3 13 -5 12 -9 -7 -26 l-23 -20 23 7 c22 6 23 5 17 -17 -4 -16 -3
-19 3 -9 8 11 14 11 33 -3 13 -9 19 -16 13 -16 -5 0 -16 6 -24 13 -12 10 -12
9 -2 -4 8 -10 8 -19 2 -27 -7 -9 -7 -9 2 -2 7 6 19 10 27 10 12 0 11 -3 -2
-18 -15 -16 -15 -18 3 -20 41 -4 49 -5 48 -11 -2 -20 3 -31 12 -26 6 3 10 -1
10 -10 0 -10 -5 -13 -12 -9 -7 4 -4 -2 6 -14 15 -17 22 -19 33 -11 10 9 13 8
13 0 0 -7 4 -10 9 -6 6 3 8 -5 5 -19 -5 -28 26 -53 49 -40 6 4 3 -2 -7 -14
-12 -14 -14 -22 -7 -22 7 0 9 -5 5 -12 -4 -7 -3 -8 5 -4 6 4 9 12 6 17 -4 5
-4 9 -1 9 7 0 41 -63 38 -72 -1 -4 6 -4 15 -1 12 5 15 2 11 -8 -7 -17 18 -56
29 -46 3 4 -2 14 -13 22 -16 12 -16 14 -3 15 9 0 21 -11 27 -25 14 -31 15 -38
4 -31 -5 3 -9 -1 -9 -9 0 -8 4 -12 8 -9 4 2 11 -1 15 -7 5 -9 11 -6 22 7 13
16 14 16 8 2 -3 -10 -9 -26 -12 -35 -6 -16 -5 -16 8 1 13 17 15 17 31 1 9 -9
17 -21 17 -26 0 -6 6 -7 12 -3 7 4 10 4 6 -1 -4 -4 0 -14 10 -22 15 -13 15
-13 -6 -3 -13 6 -26 18 -29 26 -5 13 -8 13 -15 2 -8 -10 -9 -9 -4 4 3 10 1 20
-3 22 -5 3 -8 -3 -7 -14 0 -11 4 -19 8 -18 14 6 58 -46 53 -61 -3 -9 -3 -12 1
-9 3 4 15 -3 26 -15 11 -12 17 -16 13 -9 -3 6 -1 12 4 12 6 0 11 -7 11 -15 0
-8 -5 -15 -12 -15 -6 0 -9 -3 -5 -6 3 -3 12 -2 19 2 20 13 38 13 35 1 -1 -7 4
-11 12 -9 12 3 12 1 0 -14 -11 -13 -11 -18 -1 -21 6 -3 10 -9 6 -14 -3 -5 0
-9 5 -9 6 0 11 6 11 13 0 6 5 4 11 -6 6 -9 14 -15 18 -12 10 5 5 -51 -6 -68
-5 -8 -2 -8 8 0 13 10 16 10 16 -2 0 -8 -3 -13 -6 -11 -3 2 -15 0 -26 -5 -15
-6 -16 -8 -4 -8 9 -1 19 -8 22 -15 4 -11 1 -13 -11 -9 -15 6 -15 5 -3 -10 8
-10 10 -21 6 -25 -4 -4 -10 -1 -12 6 -3 6 -9 12 -15 12 -7 0 -6 -5 1 -14 7 -8
8 -16 4 -18 -4 -3 -2 -3 6 -1 11 3 10 -1 -3 -16 -10 -11 -15 -25 -11 -30 3 -6
1 -11 -4 -11 -6 0 -11 -5 -11 -11 0 -5 4 -8 9 -4 5 3 13 0 17 -6 4 -7 3 -9 -3
-6 -6 4 -17 -1 -24 -10 -10 -11 -10 -14 -2 -9 9 5 11 2 7 -8 -3 -9 -12 -16
-20 -16 -8 0 -14 -4 -14 -9 0 -5 10 -7 23 -5 20 4 20 4 -3 -6 -20 -9 -22 -13
-10 -20 12 -8 11 -10 -5 -11 -12 0 -15 -3 -7 -6 10 -4 9 -9 -5 -20 -10 -8 -13
-12 -6 -9 6 4 14 2 18 -4 6 -9 -8 -15 -29 -11 -5 1 -4 -5 3 -13 7 -9 18 -13
25 -9 7 4 6 1 -1 -9 -7 -8 -9 -19 -5 -23 4 -5 1 -5 -6 -1 -7 4 -10 11 -8 15 3
4 -1 8 -8 8 -11 0 -12 -4 -3 -19 9 -14 9 -23 -1 -38 -15 -25 -15 -33 1 -25 6
4 3 -1 -7 -9 -20 -16 -33 -51 -15 -40 5 3 9 0 9 -5 0 -6 -7 -11 -15 -11 -9 0
-12 -6 -8 -17 4 -11 3 -14 -5 -9 -8 5 -10 2 -6 -8 3 -9 11 -13 17 -9 6 3 7 1
3 -6 -6 -9 -11 -9 -21 -1 -10 8 -15 8 -21 -1 -5 -8 -3 -9 6 -4 10 6 12 4 7 -9
-4 -9 -3 -14 2 -11 5 3 13 0 17 -6 4 -7 3 -9 -3 -6 -6 4 -17 -1 -24 -10 -8 -9
-9 -14 -3 -10 12 7 29 -21 19 -31 -3 -3 -5 1 -5 8 0 8 -8 3 -20 -10 -11 -13
-20 -28 -20 -33 0 -6 6 -3 13 7 13 17 14 18 20 2 4 -9 3 -15 -2 -12 -9 6 -26
-25 -36 -64 -5 -19 -4 -22 4 -10 6 9 11 10 11 3 0 -6 -12 -21 -28 -33 -15 -12
-21 -19 -15 -15 9 4 13 -1 13 -15 0 -13 -4 -19 -12 -14 -6 4 -8 3 -5 -3 4 -6
0 -16 -8 -23 -8 -7 -15 -17 -15 -23 0 -6 6 -3 13 7 13 17 14 18 20 2 5 -11 3
-15 -5 -10 -8 5 -9 2 -5 -10 4 -9 3 -14 -2 -11 -5 3 -12 1 -16 -5 -3 -5 0 -10
7 -10 11 0 11 -2 0 -9 -7 -4 -12 -12 -11 -17 4 -21 -2 -35 -11 -29 -17 11 -11
-7 7 -21 17 -13 17 -14 -1 -7 -13 4 -17 3 -12 -5 4 -7 2 -12 -6 -12 -8 0 -9
-3 -3 -8 15 -10 18 -35 4 -26 -9 5 -10 2 -5 -11 5 -15 4 -16 -9 -5 -13 11 -14
10 -9 -4 3 -9 11 -16 17 -16 6 0 7 -3 4 -6 -4 -4 -12 -2 -19 4 -10 8 -13 4
-15 -15 -1 -19 1 -22 8 -12 5 8 9 10 9 6 0 -4 -10 -21 -22 -37 -18 -25 -19
-31 -7 -46 13 -16 12 -17 -5 -10 -20 7 -20 6 -1 -14 19 -20 19 -21 -1 -14 -16
7 -17 6 -6 -8 10 -13 10 -18 1 -24 -8 -4 -9 -3 -5 4 4 7 2 12 -4 12 -6 0 -8
-10 -4 -27 7 -26 6 -27 -12 -13 -18 14 -18 14 -5 -3 11 -14 11 -20 1 -32 -7
-8 -9 -15 -5 -15 4 0 3 -6 -4 -13 -8 -10 -7 -17 2 -27 10 -10 8 -12 -8 -6 -11
4 -16 4 -13 0 4 -4 2 -16 -4 -28 -10 -19 -9 -19 4 -8 13 10 18 10 24 1 4 -7 3
-10 -2 -7 -5 3 -15 0 -22 -8 -7 -8 -8 -14 -2 -14 5 0 10 -4 10 -9 0 -5 -10 -7
-23 -4 -20 4 -20 3 -4 -7 19 -12 13 -35 -6 -24 -7 4 -9 4 -5 -1 4 -4 3 -17 -3
-27 -9 -16 -8 -19 3 -15 7 2 12 9 11 14 -1 5 4 10 12 10 10 0 10 -5 -3 -23 -9
-12 -20 -20 -24 -18 -4 2 -9 0 -13 -6 -3 -5 2 -10 12 -10 15 0 16 -2 3 -10
-10 -6 -11 -10 -2 -10 6 0 12 -6 12 -14 0 -8 7 -16 14 -19 10 -4 13 -1 10 7
-3 8 0 17 7 22 7 4 10 3 5 -4 -3 -6 -2 -13 4 -17 6 -4 8 -10 5 -15 -3 -4 4 -6
15 -3 12 3 20 0 20 -8 0 -8 6 -5 14 7 11 14 12 22 3 34 -7 9 -4 8 9 -3 11 -9
24 -14 27 -10 4 3 7 1 7 -5 0 -7 -4 -12 -10 -12 -5 0 -10 -5 -10 -12 0 -9 3
-9 12 0 9 9 16 8 30 -4 16 -15 17 -15 13 5 -2 11 1 24 7 27 7 4 8 2 4 -4 -4
-7 -2 -12 4 -12 6 0 9 -4 6 -8 -2 -4 6 -8 19 -8 15 0 21 4 18 14 -4 10 -8 11
-13 2 -5 -9 -9 -8 -13 2 -3 10 3 14 18 14 13 0 21 -4 19 -8 -3 -4 2 -8 11 -8
10 0 14 -5 9 -12 -6 -10 -4 -10 7 -1 16 16 33 17 23 1 -4 -7 -3 -8 4 -4 6 4 9
13 5 22 -4 11 -9 12 -19 3 -8 -6 -14 -10 -15 -8 -8 38 -7 40 7 28 8 -6 14 -8
14 -3 0 4 5 3 11 -3 6 -6 18 -9 25 -6 8 3 14 0 14 -7 0 -6 -4 -9 -8 -6 -5 3
-9 -1 -9 -9 0 -10 4 -12 12 -5 7 6 19 8 27 5 8 -3 21 1 28 9 7 9 17 13 22 10
5 -3 1 -12 -9 -21 -17 -13 -16 -13 4 -3 13 6 20 16 17 24 -3 8 0 17 7 22 7 4
10 3 5 -4 -10 -16 24 -46 37 -33 15 15 30 14 21 -1 -4 -6 -3 -8 4 -5 5 4 8 17
6 30 -2 12 -1 16 2 9 5 -10 9 -10 22 0 10 8 13 9 9 1 -4 -6 -4 -13 0 -16 5 -2
2 -2 -4 -1 -7 2 -13 -1 -13 -6 0 -5 11 -9 24 -8 21 2 23 5 14 23 -10 19 -10
19 9 3 15 -14 22 -15 31 -6 7 7 12 8 12 3 0 -6 5 -3 11 5 9 13 10 13 6 0 -2
-8 -10 -14 -16 -12 -7 1 -10 -2 -7 -7 7 -10 25 -9 44 2 7 5 12 3 12 -5 0 -8 4
-7 11 4 5 10 16 15 24 12 8 -4 15 -1 15 6 0 6 5 8 10 5 6 -4 8 -10 6 -14 -3
-4 6 -7 19 -7 13 0 21 4 19 8 -3 5 -9 6 -14 3 -4 -3 -10 2 -13 10 -5 12 0 11
29 -3 35 -16 36 -16 56 8 13 16 18 19 14 8 -9 -27 -13 -44 -9 -36 2 4 11 4 19
1 8 -3 14 0 14 7 0 6 -6 8 -12 4 -10 -5 -10 -4 -2 5 15 17 54 22 60 8 5 -14
54 -19 54 -5 0 5 -4 7 -8 4 -4 -2 -14 -1 -21 3 -8 5 5 8 30 6 25 -1 47 2 51 9
5 7 8 6 8 -4 0 -13 1 -13 11 0 8 12 9 11 5 -5 -5 -17 -1 -20 23 -20 16 -1 27
3 24 8 -3 5 5 7 18 5 15 -2 23 -9 21 -18 -2 -11 1 -11 11 2 11 14 16 15 26 5
7 -7 12 -7 11 -2 -5 22 1 25 21 14 13 -7 19 -7 15 -1 -3 6 -2 13 4 17 5 3 10
0 10 -7 1 -7 7 -2 14 11 8 15 16 20 20 12 4 -6 2 -11 -3 -11 -6 0 -11 -8 -11
-17 0 -15 2 -16 10 -3 9 13 14 7 11 -12 -2 -13 6 -9 20 9 10 11 10 14 2 9 -7
-4 -13 -3 -13 2 0 6 7 13 16 16 8 3 12 2 9 -3 -3 -5 -1 -12 5 -16 5 -3 10 -1
10 4 0 6 18 11 40 11 24 0 40 5 40 12 0 6 3 9 6 5 3 -3 2 -12 -2 -19 -12 -19
-14 -39 -3 -32 5 3 7 9 4 14 -6 10 18 20 48 20 18 0 19 2 7 10 -12 7 -10 9 8
7 l22 -1 -25 -24 c-14 -12 -25 -26 -25 -29 0 -3 8 1 18 10 10 10 22 14 27 10
4 -5 5 -3 1 4 -5 9 5 11 39 9 42 -3 50 2 46 27 -2 12 6 8 20 -10 12 -14 12
-16 0 -8 -9 5 -12 4 -7 -3 3 -6 15 -9 26 -7 11 2 20 -2 20 -8 0 -8 2 -9 8 -1
4 6 19 10 34 10 20 -1 24 2 17 10 -7 8 -6 14 1 19 6 4 10 3 9 -2 -3 -20 2 -25
15 -14 10 8 16 9 21 1 4 -6 1 -9 -7 -8 -7 2 -14 -7 -16 -19 -2 -13 2 -23 8
-23 6 0 8 -6 4 -12 -4 -7 -4 -10 1 -6 4 4 15 2 24 -4 9 -7 5 0 -8 15 -14 15
-21 30 -18 34 4 3 7 1 7 -6 0 -7 5 -9 12 -5 7 5 8 3 3 -6 -6 -9 -4 -12 6 -8
10 4 15 -3 16 -24 1 -16 -2 -26 -7 -23 -6 4 -10 4 -10 1 0 -3 9 -10 20 -16 15
-8 19 -7 16 2 -1 7 -1 10 1 5 3 -4 9 -4 15 -1 5 4 5 -4 -2 -16 -9 -16 -9 -20
-1 -15 8 5 10 -2 6 -22 -5 -25 -4 -26 4 -5 12 26 23 30 14 5 -6 -15 -4 -16 9
-5 13 10 18 10 24 1 4 -7 3 -9 -3 -6 -6 4 -17 0 -24 -9 -7 -8 -8 -14 -3 -13 5
1 18 1 29 0 18 -1 19 -2 3 -12 -10 -5 -18 -15 -18 -22 0 -8 3 -9 8 -1 4 6 14
13 23 16 12 5 15 -1 14 -32 -1 -22 2 -37 7 -34 5 3 6 9 3 14 -3 5 -1 12 5 15
6 4 10 3 9 -2 -4 -24 2 -63 11 -63 5 0 7 8 4 18 -5 14 -4 14 4 2 7 -9 7 -18 1
-26 -14 -17 13 -38 29 -22 9 9 12 9 12 -1 0 -7 4 -10 9 -7 15 10 6 -25 -10
-35 -12 -8 -12 -10 1 -8 31 3 40 -2 40 -22 0 -16 4 -19 23 -14 16 5 18 4 8 -3
-12 -9 -12 -12 1 -26 9 -8 20 -12 24 -8 5 4 6 3 2 -2 -4 -5 -2 -16 4 -25 7 -9
0 -5 -14 8 -15 13 -33 21 -40 18 -8 -4 -7 -6 5 -6 11 -1 15 -6 11 -13 -4 -6
-3 -9 2 -5 5 3 23 -7 40 -21 16 -15 24 -23 17 -18 -10 6 -12 4 -7 -8 3 -9 12
-16 20 -16 13 0 18 -12 15 -33 -1 -4 10 -13 24 -19 18 -8 25 -18 23 -32 -2
-16 2 -20 16 -18 16 3 18 1 9 -10 -8 -10 -9 -18 -1 -28 8 -12 9 -12 4 2 -3 10
-1 18 4 18 6 0 10 -8 10 -17 0 -10 5 -25 11 -33 9 -13 10 -12 5 2 -3 10 0 20
6 24 6 4 8 3 5 -3 -4 -6 3 -23 15 -38 17 -22 19 -29 7 -36 -8 -5 -9 -9 -3 -9
5 0 16 6 23 13 11 10 11 8 1 -11 -6 -13 -9 -26 -6 -30 3 -3 6 -1 6 5 0 6 6 13
14 16 15 6 16 -9 2 -32 -7 -10 -3 -12 14 -6 14 5 20 3 16 -3 -3 -6 6 -20 20
-31 15 -12 23 -21 18 -21 -4 0 -18 10 -31 22 -13 12 -23 17 -23 11 0 -6 7 -14
16 -17 8 -3 12 -11 9 -16 -4 -6 -3 -10 2 -9 26 4 35 -1 24 -15 -9 -11 -9 -16
0 -22 8 -4 9 -3 5 4 -4 7 -2 12 4 12 7 0 14 -9 17 -20 3 -11 9 -17 14 -14 5 3
9 -2 9 -10 0 -9 5 -16 10 -16 6 0 8 -12 5 -27 l-6 -28 15 30 c11 21 15 24 13
10 -1 -12 3 -19 11 -17 8 1 11 -2 7 -8 -3 -6 -11 -8 -16 -5 -5 4 -9 1 -9 -6 0
-6 8 -9 20 -6 11 3 23 0 27 -5 3 -6 2 -8 -3 -5 -6 3 -16 2 -24 -4 -12 -7 -11
-9 5 -10 11 -1 24 -1 28 0 5 1 6 -3 2 -9 -3 -5 -1 -10 5 -10 7 0 7 -7 -1 -22
-9 -19 -9 -21 2 -10 17 16 37 16 21 0 -7 -7 -12 -17 -12 -23 0 -5 5 -3 10 5 7
11 10 11 10 2 0 -8 5 -10 13 -6 10 6 10 4 0 -7 -16 -16 -17 -29 -2 -29 5 0 7
5 3 12 -5 7 -3 8 5 4 7 -5 10 -15 7 -23 -4 -11 -2 -13 9 -9 11 4 17 -3 22 -25
4 -22 10 -29 22 -26 12 3 17 -3 19 -17 0 -11 6 -22 12 -24 7 -3 7 -9 -2 -20
-10 -12 -10 -14 0 -8 7 4 12 2 12 -4 0 -6 5 -8 10 -5 5 3 10 1 10 -5 0 -6 5
-8 11 -4 7 4 9 0 5 -13 -5 -14 -1 -19 14 -19 14 0 19 5 15 15 -5 12 -3 12 12
0 15 -12 16 -12 10 4 -7 19 9 24 16 5 4 -10 6 -10 6 -1 1 7 9 10 19 7 9 -3 6
2 -8 10 -23 14 -23 15 -5 17 11 1 23 1 27 0 4 0 5 6 2 14 -4 8 -11 12 -17 8
-6 -3 -7 -1 -3 6 6 9 11 9 24 -1 14 -11 15 -10 9 6 -6 14 -4 17 8 12 9 -3 13
-2 10 3 -3 5 -1 12 4 16 6 3 7 13 4 22 -5 13 -2 15 12 10 15 -6 16 -5 5 8 -11
13 -10 14 4 9 19 -7 22 11 4 20 -7 4 -3 4 10 2 20 -4 21 -2 10 12 -10 12 -10
14 0 8 11 -7 16 4 13 29 -1 6 6 1 15 -10 14 -16 16 -17 11 -2 -4 9 -2 17 2 17
5 0 8 11 6 25 -2 23 -1 24 14 11 15 -14 17 -13 17 4 0 10 -5 16 -10 13 -5 -4
-6 -1 -2 6 5 7 15 10 23 7 8 -3 11 -1 8 4 -3 6 0 10 7 10 10 0 9 3 -2 9 -8 6
-18 7 -24 4 -5 -3 -6 -1 -3 5 4 5 18 9 30 8 14 -2 24 3 25 11 1 7 3 19 4 27 1
8 6 14 12 13 6 -1 11 8 10 19 0 14 4 20 13 17 7 -3 10 -9 7 -14 -3 -5 0 -9 5
-9 14 0 14 17 1 25 -12 7 -4 25 11 25 6 0 7 -5 3 -12 -4 -7 -3 -8 5 -4 9 6 9
11 -1 23 -11 14 -10 15 12 9 22 -6 22 -5 7 4 -18 11 -18 13 -1 31 11 12 25 17
38 13 17 -4 18 -3 6 5 -13 9 -8 15 11 13 4 -1 4 8 1 20 -3 14 -1 19 6 14 7 -4
12 -1 12 9 0 9 4 14 9 11 4 -3 7 6 5 19 -2 22 0 24 19 13 19 -10 20 -9 10 3
-10 12 -8 17 8 27 14 9 19 9 19 0 0 -6 3 -9 6 -5 3 3 3 11 -1 17 -5 8 -11 7
-23 -2 -10 -7 -6 0 7 14 12 15 21 30 18 35 -3 5 3 9 14 10 18 2 18 0 3 -25
l-16 -27 20 25 c16 19 18 28 9 39 -10 12 -9 13 8 7 11 -4 16 -4 12 0 -4 4 1
12 10 19 13 9 13 14 3 20 -9 5 -11 4 -6 -3 4 -7 2 -12 -4 -12 -7 0 -10 6 -7
13 2 6 13 12 25 12 12 0 21 5 20 10 -1 6 -8 9 -15 7 -7 -2 -13 2 -13 8 0 6 4
9 9 6 5 -3 14 1 21 9 10 12 16 13 29 3 10 -8 8 -3 -4 11 -11 14 -14 21 -6 16
11 -6 13 -4 7 10 -6 16 -4 16 11 4 9 -8 14 -9 10 -2 -4 6 -2 13 3 15 6 2 12
13 13 25 0 12 5 19 9 17 5 -3 6 -9 3 -14 -3 -5 -1 -11 4 -14 4 -3 8 2 8 12 0
35 3 43 15 36 6 -4 8 -3 5 3 -4 6 0 13 7 16 10 4 13 16 11 34 -2 15 -2 22 1
16 10 -24 25 -13 22 15 -2 17 2 26 10 25 11 -3 16 10 13 30 -1 5 3 6 9 2 6 -4
8 -16 5 -28 -5 -19 -5 -20 5 -5 8 13 8 23 0 38 -13 24 -7 26 14 4 15 -14 16
-14 13 3 -1 10 -6 24 -11 31 -7 11 -4 11 12 1 12 -7 18 -17 15 -23 -3 -5 -1
-6 5 -2 9 5 7 14 -4 31 -15 22 -14 23 8 21 18 -2 24 2 26 18 0 11 -3 25 -8 31
-7 8 -5 12 5 12 8 0 12 -4 10 -8 -3 -4 2 -10 11 -13 8 -3 12 -2 9 3 -3 5 5 17
17 25 12 9 18 16 12 16 -5 0 -15 -5 -21 -11 -8 -8 -13 -8 -18 0 -4 7 -1 10 7
9 7 -2 12 5 12 15 -2 15 1 16 14 5 13 -11 15 -10 9 5 -5 12 -3 16 5 11 8 -5 9
-2 5 10 -4 10 -3 15 3 11 6 -3 13 1 17 11 5 14 8 13 19 -7 7 -13 13 -18 14
-10 0 8 6 11 16 7 10 -4 13 -2 8 6 -5 8 -2 9 10 5 10 -4 22 -7 27 -7 6 0 7 -5
3 -12 -4 -7 -3 -8 5 -4 6 4 9 11 6 16 -3 4 2 11 11 14 8 3 12 2 9 -3 -3 -5 0
-13 6 -17 8 -4 9 -3 5 4 -4 7 -2 12 4 12 6 0 9 4 5 9 -9 16 17 25 29 10 10
-13 22 -18 53 -23 25 -4 21 -11 -8 -12 -16 -1 -26 2 -24 7 3 4 -3 6 -14 4 -14
-2 -18 1 -14 11 3 8 1 14 -4 14 -5 0 -9 -11 -9 -25 0 -18 3 -21 12 -14 8 6 14
6 18 0 4 -5 21 -8 39 -7 25 2 31 7 29 21 -3 16 -1 17 12 6 9 -7 13 -17 10 -22
-3 -5 0 -9 5 -9 6 0 11 5 11 10 0 16 74 11 99 -7 14 -9 21 -12 18 -6 -4 5 0
18 7 28 10 14 15 15 21 5 5 -8 4 -11 -2 -7 -5 3 -10 1 -10 -6 0 -7 8 -13 18
-13 10 0 15 4 13 8 -9 14 7 30 19 20 7 -4 26 -7 42 -7 34 2 58 -12 48 -28 -4
-6 -1 -7 8 -1 8 4 23 8 34 9 12 0 20 6 19 15 -1 9 7 16 17 16 10 0 17 -3 17
-6 -2 -21 6 -27 37 -27 19 0 35 4 35 9 0 5 -4 7 -9 4 -5 -3 -11 0 -14 7 -3 7
3 13 13 13 10 0 18 -3 18 -6 -2 -21 5 -30 22 -30 11 0 20 4 20 10 0 5 -7 7
-15 4 -8 -4 -15 -2 -15 4 0 6 7 9 16 8 18 -3 35 -26 28 -38 -3 -4 -1 -8 4 -8
6 0 13 7 16 16 4 10 2 13 -7 8 -6 -4 -9 -4 -5 1 4 4 2 15 -5 23 -9 12 -5 11
15 -2 15 -10 25 -23 22 -31 -3 -7 -1 -16 5 -20 7 -3 8 0 5 9 -3 9 -1 16 5 16
20 0 26 3 38 19 10 14 11 12 6 -8 -5 -21 -3 -23 18 -16 37 11 44 11 42 -2 -2
-7 2 -13 7 -13 6 0 10 4 10 10 0 5 10 15 23 21 20 11 21 11 8 -5 -8 -9 -11
-19 -7 -23 3 -3 6 -1 6 6 0 7 12 10 35 8 32 -4 40 2 36 26 -1 5 3 6 9 2 6 -4
9 -14 8 -22 -2 -9 4 -18 12 -20 13 -4 13 -3 0 6 -13 10 -13 11 0 12 8 0 23 2
32 4 10 2 21 -2 25 -7 3 -7 1 -8 -5 -4 -8 5 -10 1 -5 -9 3 -9 9 -12 12 -7 3 5
13 8 22 7 12 -2 15 3 12 19 -4 16 -2 18 5 7 6 -8 21 -16 34 -18 17 -2 19 -1 8
6 -8 5 -18 7 -24 4 -5 -3 -6 -1 -2 5 5 8 13 9 24 3 22 -11 53 -6 63 11 5 7 9
8 9 2 0 -6 -3 -14 -7 -18 -4 -3 -8 -17 -10 -29 -2 -17 -1 -19 6 -7 5 8 7 18 5
22 -7 11 14 10 36 -2 13 -7 21 -7 26 2 4 7 3 8 -4 4 -6 -4 -16 4 -22 16 -11
22 -10 22 4 4 9 -11 16 -16 16 -11 0 5 5 4 12 -3 8 -8 8 -15 -3 -29 -12 -16
-11 -15 9 1 18 16 20 22 10 35 -10 13 -10 14 2 4 11 -10 16 -9 27 5 13 15 13
15 3 -5 -12 -26 -13 -25 17 -28 13 -1 20 2 16 8 -4 6 0 8 10 4 9 -3 23 1 32 9
18 18 21 4 3 -15 -11 -11 -10 -13 5 -8 11 4 20 1 24 -8 5 -13 7 -13 18 2 7 9
11 23 8 30 -3 7 -1 13 4 13 5 0 9 -10 10 -21 1 -12 6 -26 11 -31 6 -6 8 0 7
15 -2 15 2 24 11 24 11 0 11 -4 2 -14 -9 -11 -8 -13 3 -11 8 2 13 -2 12 -9 -2
-8 8 -6 27 5 23 13 26 19 17 31 -9 11 -6 11 12 -2 19 -13 28 -14 45 -4 12 6
24 10 28 9 8 -2 5 19 -6 37 -5 8 -3 16 5 22 8 5 9 9 4 9 -6 0 -17 -6 -24 -12
-10 -11 -12 -10 -9 2 2 8 9 20 17 26 11 9 12 12 1 19 -9 5 -11 4 -6 -3 4 -7 3
-12 -2 -12 -15 0 -22 28 -9 34 7 2 4 5 -5 5 -21 1 -23 12 -6 29 9 9 9 12 -1
12 -7 0 -11 6 -8 15 4 8 2 17 -4 20 -5 4 -7 11 -4 16 4 5 1 9 -5 9 -7 0 -7 7
1 22 l12 23 -23 -20 -23 -20 13 24 c10 20 10 25 -3 33 -9 5 -14 15 -11 23 4 8
11 12 17 8 6 -3 7 -1 3 6 -5 8 -12 9 -20 2 -9 -7 -12 -4 -11 12 0 12 4 27 8
34 4 6 2 15 -4 19 -8 5 -9 3 -4 -6 5 -8 4 -11 -3 -7 -5 4 -8 17 -5 30 4 18 3
19 -6 7 -14 -20 -14 -4 0 22 8 15 8 19 -1 13 -7 -5 -11 -1 -10 11 4 33 0 45
-10 39 -6 -4 -10 9 -10 32 0 28 -3 34 -10 23 -6 -9 -10 -10 -10 -3 0 6 5 15
11 19 8 5 6 10 -5 16 -14 8 -15 12 -4 26 11 13 11 15 -4 9 -19 -7 -21 12 -3
25 6 5 5 8 -2 8 -7 0 -13 5 -13 11 0 5 6 7 13 3 6 -4 3 2 -7 14 -11 12 -15 22
-11 22 5 0 0 7 -11 16 -10 8 -14 13 -7 10 6 -4 14 -2 18 4 3 5 0 10 -8 10 -10
0 -13 9 -11 30 2 16 -1 30 -7 30 -6 0 -7 -5 -4 -10 3 -6 1 -10 -5 -10 -7 0 -9
8 -5 20 4 13 2 20 -7 20 -10 0 -9 3 2 10 12 8 12 10 1 10 -11 0 -11 3 0 17 12
14 12 15 0 9 -10 -7 -12 -4 -7 12 4 12 2 23 -5 28 -8 5 -10 3 -4 -7 5 -8 4
-10 0 -6 -11 10 -16 39 -6 32 4 -2 8 2 8 9 0 8 -5 12 -12 10 -7 -3 -11 6 -11
23 1 15 -4 28 -11 28 -6 0 -15 3 -19 7 -3 4 3 6 15 3 11 -2 21 0 21 6 0 5 -6
9 -14 9 -15 0 -28 24 -18 34 9 10 11 37 2 31 -4 -3 -10 2 -14 10 -3 8 -1 17 5
20 5 4 7 11 3 16 -4 6 -10 6 -18 0 -9 -8 -12 -6 -11 7 0 9 4 23 8 29 4 6 2 15
-4 19 -8 5 -9 3 -4 -7 5 -8 4 -10 0 -6 -12 10 -16 39 -5 32 5 -3 12 -1 15 5 4
6 1 9 -7 8 -7 -2 -13 4 -13 12 0 8 -4 20 -8 27 -4 6 -4 18 -1 27 4 11 1 16
-10 16 -9 0 -16 5 -16 11 0 5 5 7 10 4 6 -3 10 -4 10 0 0 3 -10 10 -22 15
l-23 9 23 0 c12 1 22 5 22 10 0 6 -8 8 -17 6 -15 -2 -18 4 -16 41 0 24 -3 41
-8 38 -5 -3 -9 2 -9 11 0 10 5 13 12 9 7 -4 8 -3 4 5 -4 6 -11 9 -15 7 -4 -3
-12 4 -19 14 -9 14 -9 21 0 26 7 5 8 2 3 -7 -5 -8 -4 -10 0 -6 11 10 15 37 6
37 -4 0 -12 -5 -17 -10 -7 -7 -11 -6 -11 4 0 8 4 13 9 10 4 -3 8 2 8 10 0 9
-8 16 -17 16 -10 0 -14 4 -8 8 6 4 10 23 11 44 1 29 -2 35 -15 31 -12 -3 -12
-2 2 7 9 6 15 15 12 21 -3 5 1 6 9 3 8 -3 12 -13 10 -22 -4 -13 -3 -13 6 2 10
15 9 20 -1 27 -11 7 -11 9 -1 9 7 0 10 5 7 10 -4 6 -1 9 7 8 7 -2 12 3 10 10
-2 10 2 10 17 3 17 -9 19 -8 16 14 -1 14 2 28 8 32 6 3 7 1 3 -5 -4 -7 -2 -12
5 -12 6 0 9 8 6 20 -3 11 0 23 5 27 7 3 8 1 4 -5 -4 -7 -1 -12 8 -12 8 0 18 5
22 12 4 7 3 8 -4 4 -7 -4 -12 -2 -12 3 0 6 7 11 15 11 8 0 15 9 15 19 0 11 5
23 11 27 8 4 9 -1 4 -15 -7 -22 -7 -22 17 1 14 13 22 27 20 32 -3 4 -8 3 -12
-4 -5 -9 -9 -9 -14 -1 -6 10 6 15 26 12 12 -1 38 55 30 64 -4 5 -1 5 6 1 7 -5
11 -15 8 -23 -4 -8 -1 -11 5 -8 6 4 8 13 5 21 -3 7 -1 16 4 19 6 4 10 1 10 -6
0 -7 3 -9 7 -6 3 4 -2 17 -13 29 -13 16 -14 19 -2 10 14 -11 17 -10 20 4 3 17
4 17 21 0 20 -20 22 -14 5 17 -10 20 -10 21 6 8 9 -8 16 -10 15 -5 -3 20 2 34
13 34 6 0 20 7 29 16 14 12 16 21 9 35 -7 12 -6 20 2 25 6 4 8 3 4 -4 -3 -6
-2 -13 4 -17 5 -3 10 -1 10 5 0 6 4 9 9 6 5 -4 7 4 4 16 -4 19 -3 20 6 8 9
-13 11 -12 11 4 0 10 18 40 40 66 22 26 36 50 33 54 -4 4 0 4 10 0 17 -6 17
-7 0 -20 -10 -7 -13 -14 -7 -14 18 0 37 27 24 35 -15 9 9 38 26 31 19 -7 45
27 34 44 -15 24 -11 36 5 14 13 -18 14 -18 15 -1 0 10 5 15 10 12 14 -9 12 8
-2 24 -10 11 -10 12 -1 7 7 -4 22 -9 32 -11 15 -3 18 1 14 12 -5 11 -3 14 6 8
10 -6 11 -3 1 15 -10 18 -9 21 1 15 9 -6 10 -3 5 10 -5 15 -4 16 9 5 8 -7 12
-17 8 -24 -3 -6 -2 -8 2 -3 14 12 17 49 3 41 -7 -4 -8 -3 -4 5 6 9 11 9 24 -1
9 -7 13 -8 10 -3 -3 6 0 24 8 40 12 26 13 27 9 5 -4 -22 -3 -21 9 5 8 17 12
33 9 38 -2 4 1 6 9 5 7 -2 12 4 10 12 -1 10 2 9 13 -4 8 -11 15 -14 15 -7 0 7
5 9 12 5 7 -4 8 -3 4 5 -4 6 -12 9 -17 6 -5 -4 -9 -1 -9 4 0 6 8 11 18 11 14
0 15 2 2 10 -13 8 -12 10 3 10 9 0 17 -5 17 -12 0 -6 3 -8 6 -5 4 4 1 14 -7
24 -12 15 -12 16 3 10 20 -7 37 11 32 38 -3 18 -1 17 17 -5 l20 -25 -16 34
c-9 18 -12 31 -7 27 5 -3 15 1 22 9 6 7 19 11 28 8 14 -5 15 -3 5 8 -19 20
-16 34 4 18 14 -12 16 -12 8 0 -6 11 -4 13 10 7 15 -5 16 -4 5 9 -12 15 -3 21
24 16 5 -1 3 5 -4 14 -11 13 -10 15 4 9 12 -5 15 -2 9 12 -5 12 -3 15 6 9 17
-10 32 14 24 40 -5 18 -4 18 11 6 15 -12 16 -12 10 5 -4 10 -4 16 1 12 9 -8
40 20 31 29 -3 3 2 12 12 20 16 14 16 14 0 9 -21 -6 -34 9 -17 20 8 4 9 3 5
-4 -5 -8 -2 -10 9 -6 18 7 14 14 -8 18 -8 1 -22 8 -31 15 -14 12 -19 11 -31
-5 -14 -18 -14 -18 -10 3 3 17 0 20 -12 16 -12 -5 -14 -3 -8 7 6 10 3 12 -13
8 -12 -4 -25 -1 -29 4 -4 7 -1 8 7 3 9 -5 11 -4 6 4 -6 9 -11 9 -22 0 -13 -11
-18 -4 -16 21 0 3 -9 6 -21 7 -12 0 -16 -1 -9 -4 6 -3 12 -9 12 -15 0 -7 -5
-6 -14 1 -8 6 -18 11 -22 9 -5 -1 -19 3 -30 10 -12 6 -25 8 -29 4 -5 -4 -5 -1
-1 6 5 8 13 9 25 2 10 -5 22 -6 26 -2 5 4 5 1 0 -7 -6 -10 -4 -12 4 -7 19 12
-1 24 -46 28 -7 1 -13 6 -13 12 0 6 -5 4 -10 -4 -8 -13 -10 -12 -10 3 0 10 -4
15 -10 12 -5 -3 -10 -1 -10 6 0 10 -3 10 -11 2 -13 -13 -52 7 -76 37 -7 8 -13
11 -13 6 0 -5 -7 -2 -17 5 -15 13 -15 12 -3 -11 l13 -25 -24 20 c-13 11 -29
27 -36 35 -11 13 -12 13 -13 -3 0 -10 -4 -16 -10 -12 -5 3 -7 12 -3 21 3 9 0
14 -8 12 -8 -2 -13 3 -11 10 1 8 -2 11 -8 7 -6 -3 -7 -12 -3 -18 5 -8 2 -8 -9
0 -8 7 -19 9 -23 5 -5 -4 -5 2 -1 12 6 17 5 17 -11 5 -15 -12 -16 -12 -10 4
10 25 -2 21 -13 -5 l-9 -23 0 23 c-1 16 -7 22 -26 23 -43 2 -46 4 -59 21 -10
14 -15 15 -26 5 -10 -10 -11 -9 -5 2 6 11 2 13 -17 9 -22 -4 -26 -2 -23 19 2
18 0 21 -11 12 -8 -6 -11 -15 -8 -20 9 -16 -3 -10 -17 8 -8 9 -9 14 -3 10 6
-3 11 0 11 7 0 15 -28 16 -40 1 -4 -6 -10 1 -14 14 -6 23 -7 24 -14 5 -7 -17
-8 -16 -8 5 -1 20 -4 22 -13 13 -15 -15 -32 -16 -23 -2 4 6 -6 10 -22 11 -25
0 -26 1 -8 9 19 8 19 9 -2 9 -12 1 -24 -5 -26 -11 -3 -7 -6 -4 -6 7 -1 17 -3
17 -11 5 -7 -12 -10 -12 -10 -1 0 8 -6 11 -15 7 -9 -3 -20 2 -27 13 -6 11 -18
17 -25 14 -8 -3 -13 2 -13 13 0 9 -3 14 -7 11 -3 -4 -12 -2 -20 4 -10 9 -13 8
-13 0 0 -7 -5 -9 -10 -6 -6 4 -8 11 -5 16 3 5 -1 6 -9 3 -10 -4 -16 -1 -17 7
0 8 -4 5 -9 -6 -8 -18 -9 -18 -9 5 -1 20 -3 22 -11 10 -5 -8 -10 -10 -10 -4 0
7 -7 15 -16 18 -15 6 -15 4 -3 -11 13 -16 12 -17 -3 -4 -10 7 -18 19 -18 26 0
8 -8 11 -20 8 -13 -4 -26 1 -34 12 -7 10 -18 15 -25 11 -6 -4 -18 -2 -26 4
-12 10 -15 10 -15 0 0 -8 -3 -10 -6 -7 -4 4 -2 12 4 20 8 10 6 13 -8 13 -10 0
-17 -4 -14 -7 2 -4 -1 -11 -7 -15 -8 -4 -9 -3 -5 5 4 6 0 14 -11 18 -10 4 -24
13 -31 20 -7 6 -19 10 -27 7 -13 -5 -19 5 -17 27 1 4 -7 5 -18 2 -11 -3 -17
-10 -13 -16 3 -6 1 -7 -6 -3 -6 4 -9 12 -5 17 3 6 -5 8 -19 5 -16 -3 -24 1
-24 10 0 10 4 11 13 3 8 -7 14 -7 19 1 4 6 3 10 -2 9 -31 -7 -48 28 -29 59 9
16 -6 16 -23 0 -8 -7 -6 -1 4 15 10 16 13 27 6 27 -6 0 -11 5 -11 11 0 5 4 7
10 4 12 -7 2 21 -18 53 -13 20 -13 22 4 23 14 1 13 3 -6 9 -14 4 -20 8 -14 9
7 1 14 8 17 15 4 11 1 13 -11 9 -15 -6 -15 -5 -3 10 9 11 10 17 2 17 -6 0 -11
5 -11 11 0 5 5 7 11 4 7 -5 7 -1 0 14 -32 62 -32 61 -13 54 16 -6 16 -5 -1 14
-14 16 -15 23 -6 29 8 5 10 3 4 -6 -5 -9 -4 -11 4 -6 6 4 9 12 5 17 -3 5 -9 7
-14 4 -5 -3 -8 4 -7 15 1 11 6 20 12 20 5 0 3 4 -5 9 -8 6 -17 8 -20 6 -4 -2
-7 1 -7 8 0 7 -2 17 -3 22 -5 22 0 36 13 29 7 -5 6 -1 -3 10 -8 10 -13 31 -12
47 1 18 -3 29 -10 29 -9 0 -9 3 1 9 13 8 13 12 0 27 -8 9 -14 27 -14 38 0 12
-6 20 -13 18 -8 -1 -11 2 -7 8 3 6 10 8 14 6 4 -3 13 0 21 5 12 8 11 9 -4 7
-10 -2 -21 3 -24 11 -2 8 0 11 5 8 5 -3 10 1 10 9 0 8 -5 13 -11 11 -7 -3 -10
9 -8 34 2 22 0 39 -5 39 -5 0 -10 6 -10 13 0 7 -3 26 -7 42 -5 21 -4 26 3 15
8 -12 10 -11 9 7 -2 14 -7 19 -18 15 -12 -4 -13 -2 -2 9 14 15 16 33 3 25 -5
-3 -11 1 -15 9 -3 8 0 17 6 21 7 5 8 2 3 -6 -5 -9 -4 -11 4 -6 6 4 9 12 5 17
-3 5 -9 7 -14 4 -5 -3 -11 -1 -15 5 -3 5 1 10 9 10 8 0 17 4 20 9 4 5 -4 7
-16 4 -19 -4 -20 -3 -8 6 12 8 12 11 1 11 -11 0 -11 3 -1 15 11 13 8 19 -11
17 -3 0 -5 10 -5 23 0 13 3 22 7 19 4 -2 11 1 15 7 4 7 3 9 -3 6 -6 -4 -17 1
-24 10 -12 15 -12 16 5 10 15 -6 17 -5 8 6 -9 10 -8 17 1 26 6 7 8 12 2 11 -5
-2 -17 -2 -25 -1 -13 1 -13 2 0 11 8 5 10 10 3 10 -6 0 -9 9 -6 20 3 11 10 20
16 20 6 0 7 3 4 6 -4 4 -14 1 -23 -7 -16 -13 -16 -12 -4 11 9 17 10 25 1 28
-6 2 -11 8 -11 13 0 6 5 7 10 4 17 -10 11 7 -7 22 -10 8 -12 12 -6 8 9 -4 11
-1 7 9 -3 9 -10 13 -15 10 -5 -3 -5 6 1 20 5 14 6 26 2 26 -4 0 -8 9 -9 20 -1
12 3 18 8 14 6 -3 5 3 -2 15 -10 14 -16 17 -21 8 -11 -16 -5 24 5 41 5 7 3 12
-4 12 -6 0 -9 8 -7 18 3 10 -1 27 -8 37 -12 16 -11 21 3 37 15 16 15 18 1 13
-19 -8 -33 11 -17 21 8 5 9 3 4 -7 -8 -12 -6 -12 8 0 18 14 22 22 10 19 -5 -1
-23 6 -40 15 -18 10 -33 13 -33 8 0 -6 -7 -7 -17 -4 -10 4 -14 2 -9 -5 4 -6
-3 -12 -16 -14 -14 -2 -23 -10 -22 -19 1 -18 -26 -20 -39 -4 -5 6 -7 0 -4 -12
5 -20 3 -22 -16 -11 -20 10 -21 10 -9 -5 12 -14 11 -15 -12 -11 -18 3 -26 0
-26 -10 0 -20 -17 -29 -26 -15 -5 8 -3 9 6 4 9 -5 11 -4 6 4 -4 6 -12 9 -17 5
-5 -3 -7 -10 -3 -16 4 -6 -3 -8 -17 -6 -15 2 -23 -2 -21 -9 1 -7 -2 -14 -8
-14 -5 -1 -15 -2 -22 -3 -6 0 -13 -7 -16 -15 -3 -9 0 -11 8 -6 9 5 11 4 6 -4
-6 -9 -11 -9 -24 1 -13 11 -15 10 -9 -4 5 -14 2 -16 -17 -8 -25 9 -36 5 -36
-14 0 -6 5 -4 11 4 9 13 10 13 6 0 -2 -8 -10 -14 -17 -12 -7 2 -17 -3 -21 -10
-7 -10 -9 -10 -9 0 0 6 -4 12 -9 12 -6 0 -8 -8 -6 -18 2 -12 -4 -18 -18 -19
-12 -1 -27 -9 -33 -18 -8 -11 -14 -13 -19 -5 -5 8 -11 7 -22 -2 -9 -7 -19 -12
-22 -11 -3 1 -5 -5 -3 -13 2 -8 -1 -14 -5 -13 -20 3 -34 -2 -28 -11 3 -5 -1
-10 -10 -10 -9 0 -14 4 -10 9 3 5 1 13 -5 16 -6 4 -10 3 -9 -2 4 -13 -23 -63
-34 -63 -5 0 -4 7 3 15 11 13 8 13 -18 4 -17 -6 -29 -16 -26 -23 2 -6 -4 -12
-16 -13 -12 -1 -18 2 -14 9 4 7 2 8 -5 4 -6 -4 -8 -12 -5 -18 5 -7 2 -9 -8 -5
-11 4 -18 -2 -22 -16 -5 -18 -8 -19 -15 -7 -9 12 -11 12 -17 -3 -3 -9 -10 -15
-14 -12 -5 3 -11 1 -15 -5 -4 -6 -11 -7 -17 -4 -7 4 -8 2 -4 -4 4 -6 -2 -20
-13 -31 -16 -16 -21 -17 -25 -5 -3 7 -12 11 -21 8 -8 -3 -12 -11 -8 -17 4 -7
0 -8 -12 -3 -15 5 -16 4 -5 -9 11 -13 10 -14 -4 -9 -10 4 -16 1 -16 -7 0 -11
-3 -11 -10 1 -8 13 -10 13 -10 -2 0 -11 -5 -15 -15 -12 -8 4 -17 -1 -21 -9 -4
-10 -14 -14 -32 -11 -20 3 -23 2 -12 -5 13 -9 13 -12 1 -23 -10 -10 -12 -10
-7 0 4 6 3 12 -3 12 -5 0 -13 -9 -16 -20 -3 -11 -11 -20 -17 -20 -6 0 -6 6 2
15 7 9 10 18 6 22 -3 3 -6 1 -6 -5 0 -6 -9 -14 -20 -17 -11 -4 -18 -10 -15
-15 3 -5 1 -11 -4 -14 -5 -4 -13 -1 -17 5 -5 8 -3 9 6 4 9 -5 11 -4 6 4 -4 6
-12 9 -17 5 -5 -3 -7 -10 -4 -15 5 -8 -15 -14 -37 -10 -4 0 -4 -7 -1 -17 6
-15 5 -15 -10 -3 -15 12 -17 12 -12 -1 3 -8 -1 -21 -10 -28 -10 -8 -15 -9 -15
-1 0 6 5 11 11 11 5 0 7 5 3 11 -5 8 -9 8 -14 -1 -4 -6 -11 -12 -16 -12 -18
-1 -34 -10 -34 -20 0 -5 6 -6 13 -2 7 4 7 2 -2 -7 -11 -11 -14 -11 -18 -1 -4
9 -9 8 -21 -5 -19 -21 -29 -22 -52 -9 -9 6 -7 0 4 -13 19 -21 19 -21 1 -15
-13 5 -16 4 -11 -5 5 -7 2 -10 -6 -9 -7 2 -12 -3 -10 -10 2 -10 -2 -10 -17 -2
-13 7 -22 7 -26 0 -4 -6 -11 -8 -16 -5 -5 3 -6 -2 -2 -11 4 -11 3 -15 -5 -10
-6 3 -13 2 -17 -4 -8 -13 -45 -13 -45 0 0 6 -7 10 -15 10 -8 0 -15 5 -15 10 0
6 -5 10 -11 10 -5 0 -7 -6 -3 -12 4 -7 -2 -5 -13 5 -11 9 -22 16 -24 15 -2 -2
2 3 11 10 12 10 8 11 -20 6 -26 -4 -31 -3 -20 5 13 9 12 11 -3 11 -12 0 -16 5
-11 13 6 10 4 10 -7 0 -17 -16 -33 -17 -23 -1 5 8 2 9 -11 4 -16 -6 -16 -4 -4
11 7 10 9 15 4 10 -4 -4 -18 1 -29 10 -12 10 -15 11 -8 3 17 -20 15 -34 -3
-16 -8 8 -15 20 -15 27 0 7 -8 5 -21 -7 -11 -10 -20 -14 -19 -9 5 24 -1 46
-10 40 -6 -4 -7 -12 -3 -18 4 -7 0 -6 -10 2 -9 7 -17 20 -17 28 0 8 -5 11 -12
7 -6 -4 -17 1 -24 11 -8 11 -19 15 -30 11 -15 -6 -15 -4 -3 10 13 16 12 16
-11 4 -22 -12 -24 -12 -12 2 11 13 10 16 -5 14 -10 0 -17 5 -15 12 1 8 -2 11
-7 7 -6 -3 -8 -13 -5 -23 5 -15 4 -15 -6 1 -6 10 -16 14 -23 10 -9 -5 -8 -2 0
9 16 18 5 32 -14 17 -12 -11 -18 -3 -15 22 1 3 -15 5 -34 4 -37 -2 -55 12 -34
25 9 5 9 9 1 14 -6 4 -11 2 -11 -3 0 -16 -43 -7 -48 10 -3 11 -1 11 7 -1 7 -9
11 -10 11 -3 0 21 -18 24 -30 6 -10 -16 -11 -16 -7 4 4 16 1 20 -11 16 -9 -4
-13 -2 -9 4 7 11 -22 11 -42 -2 -9 -5 -12 -4 -7 3 8 14 -22 44 -37 35 -6 -4
-8 0 -4 10 4 11 2 14 -9 10 -7 -3 -14 -10 -14 -16 0 -6 -3 -7 -6 -4 -4 4 -1
14 6 22 11 13 11 16 -1 13 -8 -2 -13 2 -12 9 2 9 -4 10 -23 3 -19 -7 -23 -7
-18 2 5 8 2 9 -9 5 -13 -5 -17 -1 -18 16 0 21 -1 21 -9 2 -8 -18 -9 -18 -9 -2
-1 15 -4 16 -23 6 -21 -11 -22 -11 -9 4 9 12 10 17 2 17 -7 0 -9 5 -5 13 5 8
2 8 -9 -2 -15 -12 -17 -11 -17 3 0 10 -5 14 -10 11 -6 -4 -8 -11 -5 -16 10
-15 -2 -10 -16 8 -10 11 -10 14 -1 9 6 -4 12 -2 12 3 0 6 -6 11 -14 11 -8 0
-16 3 -19 8 -2 4 -3 2 -1 -4 1 -6 -4 -11 -12 -11 -7 0 -12 3 -10 6 2 3 0 15
-5 26 -6 16 -8 17 -8 3 -1 -9 -5 -19 -10 -22 -5 -3 -8 2 -7 12 0 10 -6 16 -16
16 -10 -1 -15 3 -11 9 4 7 0 8 -12 3 -16 -6 -16 -4 -4 10 13 16 12 16 -11 4
-23 -12 -24 -12 -11 4 12 14 12 16 -4 10 -14 -6 -16 -4 -10 7 7 12 6 12 -7 1
-13 -10 -18 -10 -24 -1 -5 8 -3 9 6 4 9 -5 11 -4 6 4 -6 9 -11 9 -21 1 -9 -8
-14 -6 -19 5 -4 11 -2 14 7 9 7 -4 7 -1 -2 7 -10 11 -15 11 -18 1 -7 -19 -23
-4 -17 16 5 14 2 13 -12 -3 -14 -17 -16 -17 -11 -2 4 9 2 17 -4 17 -6 0 -8 4
-5 8 3 5 -1 9 -9 9 -8 0 -12 -3 -11 -6 2 -3 -7 -6 -20 -6 -23 0 -23 1 -7 14
17 12 16 13 -5 8 -20 -5 -23 -2 -19 14 4 16 2 17 -15 8 -11 -6 -18 -7 -15 -2
4 5 -9 16 -28 23 -19 7 -32 17 -29 22 8 13 -10 10 -25 -4 -11 -10 -13 -10 -7
0 4 6 2 12 -4 12 -13 0 -41 26 -35 32 2 2 -4 4 -14 4 -13 0 -17 -5 -13 -16z
m2 -24 c0 -2 -7 -7 -16 -10 -8 -3 -12 -2 -9 4 6 10 25 14 25 6z m-140 -842 c0
-8 -19 -13 -24 -6 -3 5 1 9 9 9 8 0 15 -2 15 -3z m3350 -178 c0 -2 -7 -7 -16
-10 -8 -3 -12 -2 -9 4 6 10 25 14 25 6z m-3425 -145 c3 -5 2 -12 -3 -15 -5 -3
-9 1 -9 9 0 17 3 19 12 6z m-55 -301 c0 -5 -5 -10 -11 -10 -5 0 -7 5 -4 10 3
6 8 10 11 10 2 0 4 -4 4 -10z m3551 -47 c-12 -20 -14 -14 -5 12 4 9 9 14 11
11 3 -2 0 -13 -6 -23z m-5146 -821 c-3 -3 -11 0 -18 7 -9 10 -8 11 6 5 10 -3
15 -9 12 -12z m6725 -32 c0 -5 -5 -10 -11 -10 -5 0 -7 5 -4 10 3 6 8 10 11 10
2 0 4 -4 4 -10z m-6630 -84 c0 -2 -7 -7 -16 -10 -8 -3 -12 -2 -9 4 6 10 25 14
25 6z m6430 -171 c0 -12 -19 -12 -23 0 -4 9 -1 12 9 8 7 -3 14 -7 14 -8z
m-6300 -5 c0 -5 -2 -10 -4 -10 -3 0 -8 5 -11 10 -3 6 -1 10 4 10 6 0 11 -4 11
-10z m6084 -235 c-4 -8 -11 -12 -16 -9 -6 4 -5 10 3 15 19 12 19 11 13 -6z
m-75 -92 c-6 -7 -15 -10 -20 -7 -13 8 -3 21 15 21 12 0 13 -4 5 -14z m-5609
-133 c0 -5 -2 -10 -4 -10 -3 0 -8 5 -11 10 -3 6 -1 10 4 10 6 0 11 -4 11 -10z
m5405 -89 c3 -6 -3 -15 -14 -21 -14 -7 -22 -7 -26 0 -4 6 -3 10 2 9 20 -3 34
2 28 11 -3 6 -4 10 -1 10 3 0 7 -4 11 -9z m-5185 -171 c0 -5 -2 -10 -4 -10 -3
0 -8 5 -11 10 -3 6 -1 10 4 10 6 0 11 -4 11 -10z m117 -132 c2 -18 0 -20 -7
-8 -12 18 -13 30 -2 30 4 0 9 -10 9 -22z m5003 -1302 c0 -3 -4 -8 -10 -11 -5
-3 -10 -1 -10 4 0 6 5 11 10 11 6 0 10 -2 10 -4z m-5189 -49 c-6 -8 -7 -18 -3
-22 4 -5 2 -5 -5 -1 -14 8 -6 36 9 36 7 0 6 -5 -1 -13z m5258 -230 c8 -10 7
-14 -2 -14 -8 0 -14 6 -14 14 0 7 1 13 2 13 2 0 8 -6 14 -13z m-1474 -147 c3
-5 1 -10 -4 -10 -6 0 -11 5 -11 10 0 6 2 10 4 10 3 0 8 -4 11 -10z m-2391 -16
c3 -8 2 -12 -4 -9 -6 3 -10 10 -10 16 0 14 7 11 14 -7z m46 1 c0 -2 -6 -5 -13
-8 -8 -3 -14 1 -14 8 0 7 6 11 14 8 7 -3 13 -6 13 -8z m93 1 c11 1 16 0 12 -4
-3 -3 -17 -7 -30 -8 -16 0 -22 3 -18 13 3 8 9 10 12 5 3 -5 14 -8 24 -6z
m2131 -16 c4 0 4 4 1 10 -3 6 1 7 10 3 13 -5 14 -7 3 -14 -20 -13 -26 -11 -38
14 -10 20 -10 20 3 5 8 -10 17 -18 21 -18z m254 10 c-7 -10 -14 -17 -17 -15
-4 4 18 35 25 35 2 0 -1 -9 -8 -20z m-2828 0 c0 -5 -5 -10 -11 -10 -5 0 -7 5
-4 10 3 6 8 10 11 10 2 0 4 -4 4 -10z m2526 1 c-4 -5 -1 -11 6 -13 8 -3 6 -6
-4 -10 -11 -5 -15 -2 -13 10 5 23 4 22 11 22 3 0 3 -4 0 -9z m488 1 c3 -5 -1
-9 -9 -9 -8 0 -12 4 -9 9 3 4 7 8 9 8 2 0 6 -4 9 -8z m-3129 -22 c-17 -19 -41
-18 -29 1 3 5 9 7 14 4 5 -3 11 -1 15 5 3 5 9 10 12 10 3 0 -2 -9 -12 -20z
m46 6 c5 3 9 0 9 -6 0 -15 -23 -7 -26 8 -1 7 0 8 3 2 2 -5 9 -8 14 -4z m2847
-11 c-3 -3 -9 2 -12 12 -6 14 -5 15 5 6 7 -7 10 -15 7 -18z m-3305 -11 c-3 -8
-8 -12 -11 -10 -3 3 -11 1 -19 -6 -11 -8 -12 -7 -7 6 3 9 13 16 21 16 8 0 11
5 7 12 -4 7 -3 8 4 4 6 -4 9 -13 5 -22z m3408 9 c13 -15 12 -15 -8 -4 -24 12
-29 21 -14 21 5 0 15 -7 22 -17z m213 6 c-2 -4 2 -10 8 -12 8 -4 7 -6 -3 -6
-9 -1 -19 5 -22 12 -3 8 1 14 9 14 7 0 11 -4 8 -8z m262 -1 c4 -7 3 -8 -4 -4
-7 4 -12 2 -12 -5 0 -7 -3 -10 -6 -6 -6 5 3 27 11 27 2 0 7 -5 11 -12z m111
-13 c-15 -16 -19 -13 -11 9 3 9 10 13 15 10 5 -3 3 -11 -4 -19z m-283 7 c3 -5
-1 -9 -9 -9 -8 0 -15 4 -15 9 0 4 4 8 9 8 6 0 12 -4 15 -8z m236 -1 c0 -5 -7
-11 -14 -14 -10 -4 -13 -1 -9 9 6 15 23 19 23 5z m119 -12 c-15 -9 -32 -2 -24
11 3 5 13 6 21 3 12 -4 13 -8 3 -14z m118 15 c-3 -3 -12 -4 -19 -1 -8 3 -5 6
6 6 11 1 17 -2 13 -5z m-4393 -16 c-5 -8 -2 -9 11 -4 15 5 16 4 5 -9 -10 -12
-15 -13 -21 -3 -7 12 -3 28 7 28 3 0 2 -5 -2 -12z m4936 8 c0 -3 -4 -8 -10
-11 -5 -3 -10 -1 -10 4 0 6 5 11 10 11 6 0 10 -2 10 -4z m-5025 -16 c-12 -5
-14 -9 -6 -9 8 -1 12 -4 8 -7 -9 -9 -28 6 -22 17 4 5 14 9 23 8 14 0 13 -2 -3
-9z m4865 -5 c0 -12 -19 -12 -23 0 -4 9 -1 12 9 8 7 -3 14 -7 14 -8z m-5076
-11 c3 -8 2 -12 -4 -9 -6 3 -10 10 -10 16 0 14 7 11 14 -7z m5176 12 c0 -2 -7
-6 -15 -10 -8 -3 -15 -1 -15 4 0 6 7 10 15 10 8 0 15 -2 15 -4z m-3200 -526
c0 -5 -5 -10 -11 -10 -5 0 -7 5 -4 10 3 6 8 10 11 10 2 0 4 -4 4 -10z m850
-380 c0 -5 -5 -10 -11 -10 -5 0 -7 5 -4 10 3 6 8 10 11 10 2 0 4 -4 4 -10z
m-175 -249 c3 -5 2 -12 -3 -15 -5 -3 -9 1 -9 9 0 17 3 19 12 6z"/>
<path d="M4940 6824 c0 -2 9 -8 19 -14 14 -7 22 -7 27 2 4 7 3 8 -4 4 -7 -4
-12 -3 -12 2 0 5 -7 9 -15 9 -8 0 -15 -2 -15 -3z"/>
<path d="M1865 6540 c-3 -6 1 -7 9 -4 18 7 21 14 7 14 -6 0 -13 -4 -16 -10z"/>
<path d="M1858 6443 c7 -3 16 -2 19 1 4 3 -2 6 -13 5 -11 0 -14 -3 -6 -6z"/>
<path d="M4076 6353 c-6 -14 -5 -15 5 -6 7 7 10 15 7 18 -3 3 -9 -2 -12 -12z"/>
<path d="M1805 6161 c-3 -5 -2 -12 3 -15 5 -3 9 1 9 9 0 17 -3 19 -12 6z"/>
<path d="M1775 5989 c-10 -15 3 -25 16 -12 7 7 7 13 1 17 -6 3 -14 1 -17 -5z"/>
<path d="M5155 5811 c-3 -5 -2 -12 3 -15 5 -3 9 1 9 9 0 17 -3 19 -12 6z"/>
<path d="M5790 4921 c0 -6 4 -13 10 -16 6 -3 7 1 4 9 -7 18 -14 21 -14 7z"/>
<path d="M6135 4770 c3 -5 8 -10 11 -10 2 0 4 5 4 10 0 6 -5 10 -11 10 -5 0
-7 -4 -4 -10z"/>
<path d="M6460 4646 c0 -2 8 -10 18 -17 15 -13 16 -12 3 4 -13 16 -21 21 -21
13z"/>
<path d="M225 4550 c-3 -6 1 -7 9 -4 18 7 21 14 7 14 -6 0 -13 -4 -16 -10z"/>
<path d="M188 4273 c6 -2 9 -10 6 -15 -4 -7 -2 -8 5 -4 13 9 5 26 -12 25 -9 0
-8 -2 1 -6z"/>
<path d="M6645 4210 c-3 -6 1 -7 9 -4 18 7 21 14 7 14 -6 0 -13 -4 -16 -10z"/>
<path d="M6515 4060 c-3 -5 -1 -10 4 -10 6 0 11 5 11 10 0 6 -2 10 -4 10 -3 0
-8 -4 -11 -10z"/>
<path d="M6276 3801 c-3 -5 1 -11 9 -14 9 -4 12 -1 8 9 -6 16 -10 17 -17 5z"/>
<path d="M630 3756 c0 -2 7 -7 16 -10 8 -3 12 -2 9 4 -6 10 -25 14 -25 6z"/>
<path d="M6221 3723 c-10 -26 -10 -27 4 -9 8 11 15 23 15 28 0 15 -7 8 -19
-19z"/>
<path d="M6186 3691 c-4 -5 -2 -12 3 -15 5 -4 12 -2 15 3 4 5 2 12 -3 15 -5 4
-12 2 -15 -3z"/>
<path d="M711 3671 c-10 -6 -9 -10 3 -14 8 -3 18 -2 21 3 8 13 -9 20 -24 11z"/>
<path d="M1083 3253 c4 -3 2 -12 -4 -19 -8 -9 -5 -11 11 -7 16 4 18 8 9 19 -6
8 -14 14 -17 14 -3 0 -2 -3 1 -7z"/>
<path d="M5785 3229 c-4 -6 -5 -12 -2 -15 2 -3 7 2 10 11 7 17 1 20 -8 4z"/>
<path d="M1135 3181 c-3 -6 -2 -11 4 -11 6 0 9 -6 7 -12 -1 -7 -1 -10 1 -5 3
4 10 4 16 0 7 -4 5 2 -3 13 -8 10 -15 20 -16 22 -1 2 -5 -1 -9 -7z"/>
<path d="M6080 1880 c0 -5 5 -10 11 -10 5 0 7 5 4 10 -3 6 -8 10 -11 10 -2 0
-4 -4 -4 -10z"/>
<path d="M2070 1531 c0 -6 4 -12 8 -15 5 -3 9 1 9 9 0 8 -4 15 -9 15 -4 0 -8
-4 -8 -9z"/>
<path d="M4906 1527 c4 -11 16 -15 40 -13 18 1 36 -2 38 -8 2 -6 5 -4 5 5 1
13 -7 16 -31 15 -18 -2 -39 2 -46 7 -9 7 -11 6 -6 -6z"/>
<path d="M1637 1511 c-4 -17 -3 -21 5 -13 5 5 8 16 6 23 -3 8 -7 3 -11 -10z"/>
<path d="M1740 1525 c0 -2 6 -8 13 -14 10 -8 14 -7 14 2 0 8 -6 14 -14 14 -7
0 -13 -1 -13 -2z"/>
<path d="M5706 1497 c3 -10 9 -15 12 -12 3 3 0 11 -7 18 -10 9 -11 8 -5 -6z"/>
<path d="M853 1485 c-3 -9 -3 -18 -1 -21 3 -3 8 4 11 16 6 23 -1 27 -10 5z"/>
<path d="M1330 1479 c0 -5 5 -7 10 -4 6 3 10 8 10 11 0 2 -4 4 -10 4 -5 0 -10
-5 -10 -11z"/>
<path d="M5836 1482 c-3 -5 1 -9 9 -9 8 0 12 4 9 9 -3 4 -7 8 -9 8 -2 0 -6 -4
-9 -8z"/>
<path d="M2603 1325 c0 -8 4 -12 9 -9 5 3 6 10 3 15 -9 13 -12 11 -12 -6z"/>
<path d="M4241 1263 c7 -12 15 -20 18 -17 3 2 -3 12 -13 22 -17 16 -18 16 -5
-5z"/>
<path d="M2695 1200 c-3 -5 1 -10 10 -10 9 0 13 5 10 10 -3 6 -8 10 -10 10 -2
0 -7 -4 -10 -10z"/>
<path d="M2970 816 c0 -2 7 -7 16 -10 8 -3 12 -2 9 4 -6 10 -25 14 -25 6z"/>
<path d="M3841 727 c-8 -10 -7 -14 2 -14 8 0 14 6 14 14 0 7 -1 13 -2 13 -2 0
-8 -6 -14 -13z"/>
<path d="M3215 480 c-3 -5 -1 -10 4 -10 6 0 11 5 11 10 0 6 -2 10 -4 10 -3 0
-8 -4 -11 -10z"/>
</g>
</svg>
